<svg width="360" height="303" viewBox="0 0 360 303" fill="none" xmlns="http://www.w3.org/2000/svg"><path d="M288.958 87.602H88.482c-5.825 0-10.547 4.973-10.547 11.107v124.429c0 6.134 4.722 11.107 10.547 11.107h200.476c5.824 0 10.546-4.973 10.546-11.107V98.708c0-6.133-4.722-11.106-10.546-11.106Z" fill="#fff" stroke="#E5E7EB" stroke-width="4"/><path d="M267.841 98.383h-15.355c-2.411 0-4.365 2.058-4.365 4.597 0 2.538 1.954 4.596 4.365 4.596h15.355c2.41 0 4.365-2.058 4.365-4.596s-1.955-4.597-4.365-4.597Zm-32.417 0h-15.355c-2.411 0-4.365 2.058-4.365 4.597 0 2.538 1.954 4.596 4.365 4.596h15.355c2.411 0 4.365-2.058 4.365-4.596s-1.954-4.597-4.365-4.597Zm-28.051 4.597c0-2.539-1.954-4.597-4.365-4.597s-4.365 2.058-4.365 4.597c0 2.538 1.954 4.596 4.365 4.596s4.365-2.058 4.365-4.596Z" fill="#fff" stroke="#E5E7EB" stroke-width="4"/><path d="M105.628 183.755h29.779v11.485h12.541v-11.485h7.695v-11.07h-7.695v-42.781h-16.419l-25.901 42.972zm30.021-11.07h-16.813v-.511l16.328-27.212h.485zm53.059 23.99c15.601 0 25.022-12.506 25.053-34.039.03-21.374-9.513-33.625-25.053-33.625-15.571 0-25.022 12.219-25.053 33.625-.06 21.47 9.422 34.007 25.053 34.039m0-11.453c-7.119 0-11.723-7.529-11.693-22.586.03-14.835 4.604-22.3 11.693-22.3 7.058 0 11.663 7.465 11.663 22.3.03 15.057-4.574 22.586-11.663 22.586m33.467-1.467h29.778v11.485h12.542v-11.485h7.694v-11.07h-7.694v-42.781h-16.419l-25.901 42.972zm30.02-11.07h-16.812v-.511l16.328-27.212h.484z" fill="#E5E7EB"/><path d="M99.034 102.081c0-2.042-1.572-3.698-3.512-3.698s-3.512 1.656-3.512 3.698c0 2.043 1.573 3.699 3.512 3.699s3.512-1.656 3.512-3.699Z" fill="#fff" stroke="#E5E7EB" stroke-width="4"/><path d="M80.823 186.292c2.461 0 4.457 2.102 4.457 4.694s-1.996 4.694-4.457 4.694c-2.462 0-4.457-2.102-4.457-4.694s1.995-4.694 4.457-4.694m222.123-50.676c-2.986 1.815-6.802.738-8.526-2.405-1.723-3.144-.701-7.163 2.285-8.978 2.985-1.815 6.801-.738 8.525 2.405 1.723 3.144.701 7.163-2.284 8.978" fill="#0E9F6E"/><path d="M186.333 107.835c-2.569 0-4.652-2.193-4.652-4.898s2.083-4.898 4.652-4.898 4.651 2.193 4.651 4.898-2.082 4.898-4.651 4.898" fill="#E5E7EB"/><path d="M130.717 91.313c3.419 0 6.19-2.919 6.19-6.52s-2.771-6.519-6.19-6.519-6.191 2.92-6.191 6.52 2.772 6.519 6.191 6.519m88.499 111.833c-2.827 0-5.118 2.413-5.118 5.39s2.291 5.391 5.118 5.391 5.119-2.414 5.119-5.391-2.292-5.39-5.119-5.39" fill="#0E9F6E"/><path d="M124.54 223.835c-2.599 0-4.705-2.218-4.705-4.954s2.106-4.954 4.705-4.954c2.598 0 4.704 2.218 4.704 4.954s-2.106 4.954-4.704 4.954m47.086-23.324c1.686 1.025 2.264 3.296 1.29 5.072-.973 1.775-3.13 2.384-4.816 1.359-1.686-1.026-2.264-3.296-1.29-5.072s3.129-2.384 4.816-1.359M287.899 97.346l-6.413 6.753a.655.655 0 0 0 0 .891.577.577 0 0 0 .846 0l6.413-6.753a.655.655 0 0 0 0-.891.577.577 0 0 0-.846 0m-.628 4.836-1.849 1.947a.655.655 0 0 0 0 .891.577.577 0 0 0 .846-.001l1.849-1.947a.653.653 0 0 0 0-.891.577.577 0 0 0-.846.001M90.122 216.571l-5.738 6.043a.584.584 0 0 0 0 .796c.21.22.548.22.757 0l5.738-6.042a.585.585 0 0 0 0-.797.516.516 0 0 0-.757 0m-.562 4.326-1.655 1.743a.584.584 0 0 0 0 .796v.001c.21.22.548.22.757 0l1.655-1.743a.585.585 0 0 0 0-.797.516.516 0 0 0-.757 0M62.314 99.055l11.093-11.681a1.13 1.13 0 0 0 0-1.54 1 1 0 0 0-1.463 0L60.85 97.514a1.13 1.13 0 0 0 0 1.541 1 1 0 0 0 1.463 0m1.087-8.363 3.2-3.37a1.13 1.13 0 0 0 0-1.54 1 1 0 0 0-1.463 0l-3.2 3.37a1.13 1.13 0 0 0 0 1.54 1 1 0 0 0 1.463 0m219.208 134.019 7.809-8.224a.796.796 0 0 0 0-1.084.703.703 0 0 0-1.03 0l-7.809 8.224a.796.796 0 0 0 0 1.084.703.703 0 0 0 1.03 0m.764-5.887 2.253-2.372a.797.797 0 0 0 0-1.085.703.703 0 0 0-1.03 0l-2.252 2.372a.795.795 0 0 0 0 1.085.7.7 0 0 0 1.029 0" fill="#E5E7EB"/><path fill-rule="evenodd" clip-rule="evenodd" d="M277.342 73.267h1.244c.301 0 .543.258.543.572v1.31c0 .317-.245.572-.543.572h-1.244c-.299 0-.544-.258-.544-.572v-1.31a.59.59 0 0 1 .336-.53.5.5 0 0 1 .208-.042m4.314 0h1.245c.298 0 .543.258.543.572v1.31c0 .317-.245.572-.543.572h-1.245c-.298 0-.543-.258-.543-.572v-1.31c0-.314.245-.572.543-.572m4.318 0h1.245c.298 0 .543.258.543.572v1.31c0 .317-.245.572-.543.572h-1.245c-.298 0-.543-.258-.543-.572v-1.31q0-.115.041-.22a.56.56 0 0 1 .294-.31.5.5 0 0 1 .208-.042m4.315 0h1.245c.298 0 .543.258.543.572v1.31c0 .317-.245.572-.543.572h-1.245a.53.53 0 0 1-.385-.167.6.6 0 0 1-.161-.405v-1.31a.6.6 0 0 1 .162-.404.54.54 0 0 1 .384-.168m4.315 0h1.245c.301 0 .546.258.546.572v1.31a.56.56 0 0 1-.546.572h-1.245c-.298 0-.543-.258-.543-.572v-1.31c0-.314.245-.572.543-.572m-12.789 4.955h1.244c.299 0 .544.258.544.572v1.313c0 .314-.245.572-.544.572h-1.244c-.301 0-.544-.258-.544-.572v-1.31a.6.6 0 0 1 .158-.407.52.52 0 0 1 .386-.168m4.315 0h1.244c.298 0 .543.258.543.572v1.313c0 .314-.245.572-.543.572h-1.244c-.299 0-.544-.258-.544-.572v-1.31a.6.6 0 0 1 .158-.407.52.52 0 0 1 .386-.168m4.315 0h1.244a.56.56 0 0 1 .546.572v1.313a.6.6 0 0 1-.161.405.53.53 0 0 1-.385.167h-1.244c-.299 0-.543-.258-.543-.572v-1.31c0-.317.244-.575.543-.575m-4.471-10.279h1.245c.298 0 .543.258.543.572v1.311c0 .317-.245.572-.543.572h-1.245c-.298 0-.543-.257-.543-.572v-1.31q0-.114.041-.22a.56.56 0 0 1 .294-.31.5.5 0 0 1 .208-.043m4.315 0h1.245c.298 0 .543.258.543.572v1.311c0 .317-.245.572-.543.572h-1.245a.54.54 0 0 1-.385-.167.6.6 0 0 1-.161-.405v-1.31a.6.6 0 0 1 .162-.404.54.54 0 0 1 .384-.169M52.559 227.784h1.245c.301 0 .543.258.543.572v1.311a.56.56 0 0 1-.543.572H52.56c-.299 0-.543-.258-.543-.572v-1.311a.6.6 0 0 1 .158-.405.53.53 0 0 1 .384-.167m4.316 0h1.244c.299 0 .544.258.544.572v1.311a.56.56 0 0 1-.544.572h-1.245c-.298 0-.543-.258-.543-.572v-1.311c0-.314.245-.572.543-.572m4.317 0h1.245c.298 0 .543.258.543.572v1.311a.56.56 0 0 1-.543.572h-1.245c-.298 0-.543-.258-.543-.572v-1.311a.6.6 0 0 1 .159-.405.53.53 0 0 1 .384-.167m4.315 0h1.245c.298 0 .543.258.543.572v1.311a.56.56 0 0 1-.543.572h-1.245a.53.53 0 0 1-.385-.168.6.6 0 0 1-.16-.404v-1.311a.6.6 0 0 1 .161-.403.54.54 0 0 1 .384-.169m4.315 0h1.245a.56.56 0 0 1 .546.572v1.311a.56.56 0 0 1-.546.572h-1.245c-.298 0-.543-.258-.543-.572v-1.311c0-.314.245-.572.543-.572m-12.789 4.955h1.245c.298 0 .543.258.543.572v1.314c0 .314-.245.572-.543.572h-1.245c-.3 0-.544-.258-.544-.572v-1.311q0-.114.041-.22a.58.58 0 0 1 .294-.311.5.5 0 0 1 .21-.044m4.315 0h1.244c.299 0 .543.258.543.572v1.314c0 .314-.244.572-.543.572h-1.244c-.299 0-.543-.258-.543-.572v-1.311a.6.6 0 0 1 .157-.406.54.54 0 0 1 .386-.169m4.315 0h1.244c.301 0 .546.258.546.572v1.314a.6.6 0 0 1-.16.404.53.53 0 0 1-.386.168h-1.244c-.298 0-.543-.258-.543-.572v-1.311c0-.317.245-.575.543-.575m-4.47-10.278h1.244c.298 0 .543.258.543.572v1.311a.56.56 0 0 1-.543.572h-1.244c-.3 0-.544-.258-.544-.572v-1.311a.6.6 0 0 1 .159-.405.52.52 0 0 1 .385-.167m4.314 0h1.245c.298 0 .543.258.543.572v1.311a.56.56 0 0 1-.543.572h-1.245a.53.53 0 0 1-.385-.168.6.6 0 0 1-.16-.404v-1.311a.6.6 0 0 1 .161-.404.54.54 0 0 1 .384-.168" fill="#E5E7EB"/><path fill-rule="evenodd" clip-rule="evenodd" d="M78.632 161.782c-9.28 0-16.805-8.036-16.805-17.947 0-9.912 7.524-17.947 16.805-17.947s16.806 8.035 16.806 17.947-7.525 17.947-16.806 17.947" fill="#0E9F6E"/><path d="m85.403 136.219-7.1 7.976-4.262-4.785" stroke="#fff" stroke-width="2" stroke-linecap="round" stroke-linejoin="round"/><path d="m71.21 151.831 7.1-7.976 4.262 4.785" stroke="#fff" stroke-width="2" stroke-linecap="round" stroke-linejoin="round"/></svg>